<svg version="1" xmlns="http://www.w3.org/2000/svg" width="682.667" height="682.667" viewBox="0 0 512.000000 512.000000"><path d="M39 1.6c-3 .8-8 2.6-11 4.1C20.8 9.2 9.2 20.8 5.7 28-.4 40.6 0 25.7 0 256s-.4 215.4 5.7 228c3.5 7.2 15.1 18.8 22.3 22.3 12.6 6.1-2.3 5.7 228 5.7s215.4.4 228-5.7c7.2-3.5 18.8-15.1 22.3-22.3 6.1-12.6 5.7 2.3 5.7-228s.4-215.4-5.7-228c-3.5-7.2-15.1-18.8-22.3-22.3C471.3-.4 486.3 0 255.5.1 73.9.1 43.7.3 39 1.6zM180 128c36.5 9.4 59.6 37 65.4 78.2l.7 4.8h-33.6l-2.7-11.1c-6.3-26.3-18.3-40-39.8-45.5-8.7-2.2-26.3-2.2-35 0-22.7 5.9-38.3 21.8-46.3 47.1-4.7 15-5.2 20.7-5.2 56 .1 29.8.3 33.9 2.2 42.5 7.3 33 24.4 53.3 49.5 58.6 8.8 1.9 27.2 1.4 36.1-1 20.9-5.7 32.1-18.5 38.4-44l2.7-10.6H246l-.6 4.2c-1.2 8.3-5.4 23-8.8 30.2-11.4 24.9-31.7 40.8-60 47.3-9.1 2.1-13.8 2.6-26.1 2.6-24.7.2-41.6-4.9-58.7-17.5-20.3-14.9-33.8-38.2-40-69-2.1-10.4-2.3-13.9-2.3-43.8 0-27.5.3-34.1 1.9-42.5 6-32.5 19.8-55.9 42.9-72.9 9-6.6 29.4-14.3 42.7-16 1.9-.2 10.5-.3 19-.1 11.9.3 17.5.9 24 2.5zm284 14v14h-82v228h-34V156h-82v-28h198v14z"/></svg>