<svg version="1" xmlns="http://www.w3.org/2000/svg" width="682.667" height="682.667" viewBox="0 0 512.000000 512.000000"><path d="M241.5 97c-34.6 5.3-62.2 22.7-80.9 51-12.3 18.6-20.9 44.4-23.6 70.9-1.3 13.2-1.3 60.7 0 74.2 5.7 58.5 34.6 101 79.5 117.2 13.7 4.9 22.5 6.2 42.5 6.1 19.9 0 28.9-1.2 44.4-6.1 39.6-12.5 65.5-44.8 72.4-90.6l.9-5.7h-41.6l-.7 3.7c-7.8 45.8-30.6 65.3-75.9 65.3-42 0-69.3-27.3-78.6-78.6-2-10.6-2.2-15.6-2.3-46.4 0-28.2.3-36.6 1.7-45.8 5.6-35.8 20.5-60.9 43.7-73.5 16.8-9.2 42.6-11.7 63.2-6.2 14.1 3.7 27.2 13.1 34.6 24.8 6 9.6 11.7 25.5 13.7 38.4l.7 4.3h41.5l-.3-2.3c-3-19.3-6.6-32.1-12.5-44-14.6-29.4-38.4-47.6-72.4-55.2-8.3-1.9-41-2.8-50-1.5z"/></svg>